# xmcd CD database file
#
# Track frame offsets:
#	182
#	13525
#	27347
#	41887
#	56917
#	66480
#	84892
#	99105
#	119225
#	142132
#	156922
#	170887
#	186305
#	208242
#	221545
#	243880
#	257482
#	270962
#	283587
#	297997
#
# Disc length: 4232 seconds
#
# Revision: 1
# Processed by: cddbd v1.5.2PL0 Copyright (c) Steve Scherf et al.
# Submitted via: CDex 1.51
#
DISCID=38108614
DTITLE=Compilation - Jazz Vol. 1
DYEAR=1900
DGENRE=Jazz
TTITLE0=Count Basie - One O'clock jump
TTITLE1=Duke Ellington - Mood indigo
TTITLE2=Benny Goodman - Stompin' at the Savoy
TTITLE3=Louis Armstrong - Basin' street blues
TTITLE4=Fats Waller - Ain't misbehavin'
TTITLE5=Charlie Parker - Out of nowhere
TTITLE6=Duke Ellington - A gathering in a clearing
TTITLE7=Woody Herman - Woodchopper's ball
TTITLE8=Ella Fitzgerald - Mack the knife
TTITLE9=Lionel Hampton - Flying home
TTITLE10=Scott Joplin - The entertainer
TTITLE11=Glenn Miller - Chattanooga choo choo
TTITLE12=Charlie Parker - 52nd street theme
TTITLE13=Miles Davis - Scrapple the apple
TTITLE14=Woody Herman - Body and soul
TTITLE15=Benny Goodman - Roll'em
TTITLE16=Charly Parker - Ornithology
TTITLE17=George Benson - Love for sale
TTITLE18=Harry James - Sleepy time gal
TTITLE19=Woody Herman - Don't get around much anymore
EXTD=
EXTT0=
EXTT1=
EXTT2=
EXTT3=
EXTT4=
EXTT5=
EXTT6=
EXTT7=
EXTT8=
EXTT9=
EXTT10=
EXTT11=
EXTT12=
EXTT13=
EXTT14=
EXTT15=
EXTT16=
EXTT17=
EXTT18=
EXTT19=
PLAYORDER=
